<svg xmlns="http://www.w3.org/2000/svg" width="850" height="388" viewBox="0 0 850 388" fill="none"><path d="M850 375.5C850 382.404 659.721 388 425 388C190.279 388 0 382.404 0 375.5C0 368.596 190.279 363 425 363C659.721 363 850 368.596 850 375.5Z" fill="#F0F0F0"/><path d="M70.119 217.824C70.033 212.302 74.44 207.756 79.9622 207.67L370.07 203.156C375.592 203.07 380.138 207.477 380.224 212.999L382.511 359.981C382.597 365.503 378.19 370.05 372.668 370.136L82.5602 374.649C77.0381 374.735 72.4918 370.328 72.4059 364.806L70.119 217.824Z" fill="#0007FF"/><path d="M64.1556 217.917C64.0697 212.395 68.4766 207.848 73.9988 207.762L364.107 203.249C369.629 203.163 374.175 207.57 374.261 213.092L376.548 360.074C376.634 365.596 372.227 370.142 366.705 370.228L76.5969 374.742C71.0747 374.828 66.5284 370.421 66.4425 364.899L64.1556 217.917Z" fill="#4044FF"/><path d="M75.6572 343.738L230.71 341.326L231.081 365.18L76.0284 367.593L75.6572 343.738Z" fill="#D5D6FF"/><path d="M73.7275 219.696L117.858 219.01L118.229 242.864L74.0987 243.551L73.7275 219.696Z" fill="#D5D6FF"/><path d="M129.785 218.824L210.889 217.562L211.26 241.417L130.156 242.678L129.785 218.824Z" fill="#D5D6FF"/><path d="M121.436 218.954L126.207 218.88L126.578 242.734L121.807 242.808L121.436 218.954Z" fill="#D5D6FF"/><path d="M246.547 324.375C246.52 322.628 246.848 321.272 247.544 320.306C248.24 319.339 249.071 318.849 250.049 318.834C251.016 318.819 251.862 319.283 252.587 320.227C253.301 321.171 253.683 322.517 253.71 324.264C253.738 326.011 253.397 327.368 252.713 328.334C252.018 329.3 251.187 329.791 250.22 329.806C249.241 329.821 248.395 329.356 247.67 328.412C246.945 327.468 246.574 326.123 246.547 324.375ZM257.286 324.208C257.246 321.599 256.514 319.514 255.103 317.939C253.681 316.365 251.979 315.588 249.999 315.619C248.007 315.65 246.331 316.48 244.958 318.097C243.585 319.715 242.919 321.822 242.96 324.431C243 327.04 243.732 329.138 245.154 330.712C246.577 332.297 248.278 333.063 250.27 333.032C252.25 333.001 253.927 332.183 255.299 330.554C256.661 328.936 257.327 326.817 257.286 324.208Z" fill="#D5D6FF"/><path d="M262.062 324.134C262.034 322.387 262.363 321.03 263.058 320.064C263.754 319.098 264.585 318.607 265.564 318.592C266.53 318.577 267.377 319.042 268.102 319.986C268.816 320.93 269.198 322.275 269.225 324.023C269.252 325.77 268.912 327.126 268.228 328.092C267.532 329.059 266.701 329.549 265.734 329.564C264.756 329.579 263.91 329.115 263.185 328.171C262.459 327.227 262.089 325.881 262.062 324.134ZM272.801 323.967C272.76 321.358 272.029 319.272 270.618 317.698C269.195 316.124 267.494 315.347 265.514 315.377C263.522 315.408 261.846 316.238 260.473 317.856C259.1 319.473 258.434 321.581 258.474 324.19C258.515 326.799 259.246 328.896 260.669 330.47C262.092 332.056 263.793 332.822 265.785 332.791C267.765 332.76 269.441 331.941 270.814 330.312C272.175 328.695 272.841 326.576 272.801 323.967Z" fill="#D5D6FF"/><path d="M284.128 315.204L281.147 315.251L274.325 337.306L277.307 337.26L284.128 315.204Z" fill="#D5D6FF"/><path d="M289.154 323.712C289.127 321.965 289.455 320.609 290.151 319.643C290.846 318.676 291.678 318.186 292.656 318.171C293.623 318.156 294.469 318.62 295.194 319.564C295.908 320.508 296.29 321.854 296.317 323.601C296.344 325.348 296.004 326.705 295.32 327.671C294.625 328.637 293.793 329.128 292.827 329.143C291.848 329.158 291.002 328.693 290.277 327.749C289.552 326.805 289.181 325.46 289.154 323.712ZM299.893 323.545C299.852 320.936 299.121 318.851 297.71 317.276C296.287 315.703 294.586 314.925 292.606 314.956C290.614 314.987 288.938 315.817 287.565 317.434C286.192 319.052 285.526 321.159 285.566 323.768C285.607 326.377 286.339 328.475 287.761 330.049C289.184 331.634 290.885 332.4 292.877 332.369C294.857 332.338 296.534 331.52 297.906 329.891C299.268 328.274 299.934 326.154 299.893 323.545Z" fill="#D5D6FF"/><path d="M304.669 323.471C304.641 321.724 304.97 320.367 305.665 319.401C306.361 318.435 307.192 317.944 308.171 317.929C309.137 317.914 309.983 318.379 310.709 319.323C311.422 320.267 311.805 321.612 311.832 323.36C311.859 325.107 311.519 326.463 310.835 327.429C310.139 328.396 309.308 328.886 308.341 328.901C307.363 328.916 306.517 328.452 305.791 327.508C305.066 326.564 304.696 325.218 304.669 323.471ZM315.408 323.304C315.367 320.695 314.636 318.609 313.225 317.035C311.802 315.461 310.101 314.684 308.121 314.715C306.129 314.746 304.452 315.575 303.08 317.193C301.707 318.81 301.04 320.918 301.081 323.527C301.122 326.136 301.853 328.233 303.276 329.807C304.699 331.393 306.4 332.159 308.392 332.128C310.372 332.097 312.048 331.279 313.421 329.649C314.782 328.032 315.448 325.913 315.408 323.304Z" fill="#D5D6FF"/><path d="M82.0901 296.609L84.8629 300.542L87.9425 297.986L84.9725 294.485L89.3353 293.153L88.0335 289.422L83.6772 291.161L84.01 286.345L79.8314 286.41L80.3343 291.213L75.9259 289.61L74.7205 293.38L79.1225 294.576L76.2629 298.168L79.4206 300.627L82.0901 296.609Z" fill="#D5D6FF"/><path d="M98.8044 296.349L101.577 300.282L104.657 297.726L101.687 294.225L106.05 292.893L104.748 289.162L100.391 290.901L100.724 286.084L96.5457 286.149L97.0486 290.953L92.6402 289.35L91.4348 293.12L95.8368 294.316L92.9772 297.908L96.1349 300.366L98.8044 296.349Z" fill="#D5D6FF"/><path d="M115.519 296.089L118.291 300.022L121.371 297.466L118.401 293.965L122.764 292.633L121.462 288.902L117.106 290.641L117.439 285.824L113.26 285.889L113.763 290.693L109.354 289.09L108.149 292.86L112.551 294.056L109.691 297.648L112.849 300.106L115.519 296.089Z" fill="#D5D6FF"/><path d="M132.233 295.829L135.006 299.762L138.085 297.206L135.115 293.705L139.478 292.373L138.176 288.642L133.82 290.381L134.153 285.564L129.974 285.629L130.477 290.433L126.069 288.83L124.863 292.6L129.265 293.796L126.406 297.388L129.563 299.846L132.233 295.829Z" fill="#D5D6FF"/><path d="M157.508 295.436L160.281 299.368L163.361 296.813L160.391 293.311L164.753 291.979L163.452 288.248L159.095 289.988L159.428 285.171L155.25 285.236L155.752 290.04L151.344 288.437L150.139 292.207L154.541 293.402L151.681 296.994L154.839 299.453L157.508 295.436Z" fill="#D5D6FF"/><path d="M174.222 295.176L176.995 299.108L180.075 296.553L177.105 293.051L181.468 291.719L180.166 287.988L175.81 289.728L176.142 284.911L171.964 284.976L172.467 289.78L168.058 288.177L166.853 291.947L171.255 293.142L168.395 296.734L171.553 299.193L174.222 295.176Z" fill="#D5D6FF"/><path d="M190.937 294.916L193.71 298.848L196.789 296.293L193.819 292.791L198.182 291.459L196.88 287.728L192.524 289.468L192.857 284.651L188.678 284.716L189.181 289.52L184.773 287.917L183.567 291.687L187.969 292.882L185.11 296.474L188.267 298.933L190.937 294.916Z" fill="#D5D6FF"/><path d="M207.651 294.656L210.424 298.588L213.504 296.033L210.534 292.531L214.896 291.199L213.595 287.468L209.238 289.208L209.571 284.391L205.392 284.456L205.895 289.26L201.487 287.656L200.281 291.427L204.684 292.622L201.824 296.214L204.982 298.673L207.651 294.656Z" fill="#D5D6FF"/><path d="M232.926 294.262L235.699 298.195L238.779 295.639L235.809 292.138L240.172 290.806L238.87 287.075L234.513 288.814L234.846 283.998L230.668 284.063L231.171 288.866L226.762 287.263L225.557 291.033L229.959 292.229L227.099 295.821L230.257 298.28L232.926 294.262Z" fill="#D5D6FF"/><path d="M249.641 294.002L252.413 297.935L255.493 295.379L252.523 291.878L256.886 290.546L255.584 286.815L251.228 288.554L251.56 283.738L247.382 283.803L247.885 288.606L243.476 287.003L242.271 290.773L246.673 291.969L243.813 295.561L246.971 298.02L249.641 294.002Z" fill="#D5D6FF"/><path d="M266.355 293.742L269.128 297.675L272.207 295.119L269.237 291.618L273.6 290.286L272.298 286.555L267.942 288.294L268.275 283.478L264.096 283.543L264.599 288.346L260.191 286.743L258.985 290.513L263.387 291.709L260.528 295.301L263.685 297.76L266.355 293.742Z" fill="#D5D6FF"/><path d="M283.069 293.482L285.842 297.415L288.922 294.859L285.952 291.358L290.314 290.026L289.013 286.295L284.656 288.034L284.989 283.217L280.81 283.282L281.313 288.086L276.905 286.483L275.7 290.253L280.102 291.449L277.242 295.041L280.4 297.499L283.069 293.482Z" fill="#D5D6FF"/><path d="M308.344 293.089L311.117 297.022L314.197 294.466L311.227 290.964L315.59 289.633L314.288 285.901L309.931 287.641L310.264 282.824L306.086 282.889L306.589 287.693L302.18 286.09L300.975 289.86L305.377 291.056L302.517 294.648L305.675 297.106L308.344 293.089Z" fill="#D5D6FF"/><path d="M325.059 292.829L327.832 296.761L330.911 294.206L327.941 290.704L332.304 289.372L331.002 285.641L326.646 287.381L326.979 282.564L322.8 282.629L323.303 287.433L318.895 285.83L317.689 289.6L322.091 290.795L319.232 294.388L322.389 296.846L325.059 292.829Z" fill="#D5D6FF"/><path d="M341.773 292.569L344.546 296.501L347.625 293.946L344.655 290.444L349.018 289.112L347.716 285.381L343.36 287.121L343.693 282.304L339.514 282.369L340.017 287.173L335.609 285.57L334.403 289.34L338.805 290.535L335.946 294.127L339.103 296.586L341.773 292.569Z" fill="#D5D6FF"/><path d="M358.487 292.309L361.26 296.241L364.34 293.686L361.37 290.184L365.732 288.852L364.431 285.121L360.074 286.861L360.407 282.044L356.229 282.109L356.731 286.913L352.323 285.31L351.118 289.08L355.52 290.275L352.66 293.867L355.818 296.326L358.487 292.309Z" fill="#D5D6FF"/><path d="M361.86 162.258H311.012V116.494C311.012 63.2303 354.36 19.8818 407.624 19.8818C460.888 19.8818 504.237 63.2303 504.237 116.494V162.258H453.388V116.494C453.388 104.357 448.566 92.7168 439.984 84.1344C431.402 75.552 419.761 70.7305 407.624 70.7305C395.487 70.7305 383.847 75.552 375.264 84.1344C366.682 92.7168 361.86 104.357 361.86 116.494V162.258Z" fill="#C4C4C4"/><path fill-rule="evenodd" clip-rule="evenodd" d="M399.5 38.5C362.542 38.5 331.5 71.1339 331.5 112.429V151C331.5 155.142 328.142 158.5 324 158.5C319.858 158.5 316.5 155.142 316.5 151V112.429C316.5 63.9375 353.21 23.5 399.5 23.5C408.778 23.5 417.713 25.1418 426.057 28.1675C429.951 29.5795 431.963 33.881 430.551 37.775C429.139 41.669 424.837 43.681 420.943 42.2689C414.201 39.8239 406.994 38.5 399.5 38.5ZM449.856 51.322C452.992 48.6158 457.728 48.9641 460.434 52.1C474.157 68.002 482.5 89.2309 482.5 112.429C482.5 116.571 479.142 119.929 475 119.929C470.858 119.929 467.5 116.571 467.5 112.429C467.5 92.8479 460.463 75.0926 449.078 61.9C446.372 58.7641 446.72 54.0282 449.856 51.322Z" fill="url(#paint0_linear_1584_834)"/><path d="M529.491 162.258H305.757C297.665 162.258 289.905 165.473 284.183 171.194C278.462 176.916 275.248 184.676 275.248 192.767V332.491C275.248 340.582 278.462 348.342 284.183 354.064C289.905 359.786 297.665 363 305.757 363H529.491C537.582 363 545.343 359.786 551.064 354.064C556.786 348.342 560 340.582 560 332.491V192.767C560 184.676 556.786 176.916 551.064 171.194C545.343 165.473 537.582 162.258 529.491 162.258ZM443.048 286.091C443.048 292.834 440.37 299.301 435.602 304.069C430.834 308.837 424.367 311.516 417.624 311.516C410.881 311.516 404.414 308.837 399.646 304.069C394.878 299.301 392.199 292.834 392.199 286.091V237.896C392.199 231.153 394.878 224.686 399.646 219.918C404.414 215.15 410.881 212.471 417.624 212.471C424.367 212.471 430.834 215.15 435.602 219.918C440.37 224.686 443.048 231.153 443.048 237.896V286.091Z" fill="#040505"/><path d="M509.491 162.258H285.757C277.665 162.258 269.905 165.473 264.183 171.194C258.462 176.916 255.248 184.676 255.248 192.767V332.491C255.248 340.582 258.462 348.342 264.183 354.064C269.905 359.786 277.665 363 285.757 363H509.491C517.582 363 525.343 359.786 531.064 354.064C536.786 348.342 540 340.582 540 332.491V192.767C540 184.676 536.786 176.916 531.064 171.194C525.343 165.473 517.582 162.258 509.491 162.258ZM423.048 286.091C423.048 292.834 420.37 299.301 415.602 304.069C410.834 308.837 404.367 311.516 397.624 311.516C390.881 311.516 384.414 308.837 379.646 304.069C374.878 299.301 372.199 292.834 372.199 286.091V237.896C372.199 231.153 374.878 224.686 379.646 219.918C384.414 215.15 390.881 212.471 397.624 212.471C404.367 212.471 410.834 215.15 415.602 219.918C420.37 224.686 423.048 231.153 423.048 237.896V286.091Z" fill="#4E4E4E"/><path d="M285.757 363C277.665 363 269.905 359.786 264.183 354.064L344 162.258H403L326 363H285.757Z" fill="url(#paint1_linear_1584_834)" fill-opacity="0.9"/><path d="M407.5 363L479 162.258H494.5L424 363H407.5Z" fill="url(#paint2_linear_1584_834)" fill-opacity="0.9"/><path d="M285.757 162.258H297L255.248 259.5V228.634L282 162.49C283.24 162.337 284.494 162.258 285.757 162.258Z" fill="url(#paint3_linear_1584_834)" fill-opacity="0.9"/><path d="M423.048 286.091C423.048 292.834 420.369 299.301 415.601 304.069C410.833 308.837 404.367 311.516 397.624 311.516C390.881 311.516 384.414 308.837 379.646 304.069C374.878 299.301 372.199 292.834 372.199 286.091V237.896C372.199 231.153 374.878 224.686 379.646 219.918C384.414 215.15 390.881 212.471 397.624 212.471C404.367 212.471 410.833 215.15 415.601 219.918C420.369 224.686 423.048 231.153 423.048 237.896V286.091Z" fill="#040505"/><path d="M741 347.397C741 345.58 739.527 344.107 737.711 344.107H626.332C624.515 344.107 623.042 345.58 623.042 347.397V376.392C623.042 378.209 624.515 379.682 626.332 379.682H737.711C739.527 379.682 741 378.209 741 376.392V347.397Z" fill="#222222"/><path d="M623.042 345.712C623.042 344.756 622.424 343.91 621.513 343.621L479.856 298.673C478.442 298.224 477 299.279 477 300.763V377.488C477 378.699 477.982 379.681 479.193 379.681H620.849C622.061 379.681 623.042 378.699 623.042 377.488V345.712Z" fill="#040505"/><path d="M602.348 298.869C602.014 298.759 601.665 298.703 601.314 298.703H478.244L621.462 343.954C621.783 344.055 622.117 344.107 622.453 344.107H738.967L602.348 298.869Z" fill="#4E4E4E"/><path d="M656.745 339.425H629.041L611.809 333.808H639.513L656.745 339.425Z" fill="#3B9D56"/><path d="M687.639 339.425H659.934L642.702 333.808H670.407L687.639 339.425Z" fill="#FFD400"/><path d="M718.532 339.425H690.828L673.596 333.808H701.3L718.532 339.425Z" fill="#FA3E2C"/><path d="M637.085 332.872H609.381L592.149 327.255H619.853L637.085 332.872Z" fill="#F0F0F0"/><path d="M667.978 332.872H640.274L623.042 327.255H650.746L667.978 332.872Z" fill="#F0F0F0"/><path d="M698.872 332.872H671.168L653.936 327.255H681.64L698.872 332.872Z" fill="#F0F0F0"/><path d="M619.298 326.319H591.593L574.361 320.702H602.066L619.298 326.319Z" fill="#F0F0F0"/><path d="M650.191 326.319H622.487L605.255 320.702H632.959L650.191 326.319Z" fill="#F0F0F0"/><path d="M681.085 326.319H653.381L636.149 320.702H663.853L681.085 326.319Z" fill="#F0F0F0"/><path d="M598.702 319.766H570.998L553.766 314.149H581.47L598.702 319.766Z" fill="#F0F0F0"/><path d="M629.595 319.766H601.891L584.659 314.149H612.363L629.595 319.766Z" fill="#F0F0F0"/><path d="M660.489 319.766H632.785L615.553 314.149H643.257L660.489 319.766Z" fill="#F0F0F0"/><path d="M580.915 313.213H553.21L535.978 307.596H563.683L580.915 313.213Z" fill="#F0F0F0"/><path d="M611.808 313.213H584.104L566.872 307.596H594.576L611.808 313.213Z" fill="#F0F0F0"/><path d="M642.702 313.213H614.998L597.766 307.596H625.47L642.702 313.213Z" fill="#F0F0F0"/><path d="M588.404 243H513.51C513.51 243 522.872 260.973 522.872 272.489C522.872 284.006 513.51 301.979 513.51 301.979H588.404C588.404 301.979 597.766 284.006 597.766 272.489C597.766 260.973 588.404 243 588.404 243Z" fill="white"/><path fill-rule="evenodd" clip-rule="evenodd" d="M587.791 244C587.827 244.073 587.868 244.153 587.911 244.241C588.164 244.749 588.527 245.489 588.962 246.414C589.833 248.265 590.994 250.851 592.155 253.793C594.491 259.717 596.766 266.936 596.766 272.489C596.766 278.043 594.491 285.262 592.155 291.186C590.994 294.127 589.833 296.714 588.962 298.565C588.527 299.49 588.164 300.23 587.911 300.738C587.868 300.825 587.827 300.906 587.791 300.979H515.129C515.342 300.542 515.595 300.017 515.878 299.416C516.762 297.537 517.941 294.911 519.121 291.92C521.465 285.978 523.872 278.452 523.872 272.489C523.872 266.527 521.465 259.001 519.121 253.059C517.941 250.068 516.762 247.441 515.878 245.562C515.595 244.961 515.342 244.436 515.129 244H587.791ZM588.404 243C588.404 243 597.766 260.973 597.766 272.489C597.766 284.006 588.404 301.979 588.404 301.979H513.51C513.51 301.979 513.696 301.623 514.014 300.979C515.96 297.047 522.872 282.385 522.872 272.489C522.872 262.594 515.96 247.931 514.014 244C513.696 243.356 513.51 243 513.51 243H588.404Z" fill="#E1E3E5"/><path d="M685 96C685 129.137 658.137 156 625 156C591.863 156 565 129.137 565 96C565 62.8628 591.863 36 625 36C658.137 36 685 62.8628 685 96Z" fill="white"/><path fill-rule="evenodd" clip-rule="evenodd" d="M700 96C700 137.421 666.421 171 625 171C583.579 171 550 137.421 550 96C550 54.5786 583.579 21 625 21C666.421 21 700 54.5786 700 96ZM625 156C658.137 156 685 129.137 685 96C685 62.8628 658.137 36 625 36C591.863 36 565 62.8628 565 96C565 129.137 591.863 156 625 156Z" fill="#040505"/><path fill-rule="evenodd" clip-rule="evenodd" d="M690 96C690 137.421 656.421 171 615 171C573.579 171 540 137.421 540 96C540 54.5786 573.579 21 615 21C656.421 21 690 54.5786 690 96ZM615 156C648.137 156 675 129.137 675 96C675 62.8628 648.137 36 615 36C581.863 36 555 62.8628 555 96C555 129.137 581.863 156 615 156Z" fill="#4E4E4E"/><path d="M675 96C675 129.137 648.137 156 615 156C581.863 156 555 129.137 555 96C555 62.8628 581.863 36 615 36C648.137 36 675 62.8628 675 96ZM608.06 127.77L652.576 83.2534C654.088 81.7418 654.088 79.2907 652.576 77.7791L647.102 72.3048C645.59 70.793 643.139 70.793 641.627 72.3048L605.323 108.609L588.373 91.6594C586.861 90.1478 584.41 90.1478 582.898 91.6594L577.424 97.1337C575.912 98.6453 575.912 101.096 577.424 102.608L602.585 127.769C604.097 129.281 606.548 129.281 608.06 127.77Z" fill="#00CA50"/><defs><linearGradient id="paint0_linear_1584_834" x1="399.5" y1="31" x2="399.5" y2="151" gradientUnits="userSpaceOnUse"><stop stop-color="#F0F0F0"/><stop offset="1" stop-color="#F0F0F0" stop-opacity="0"/></linearGradient><linearGradient id="paint1_linear_1584_834" x1="387.874" y1="162.258" x2="387.874" y2="363" gradientUnits="userSpaceOnUse"><stop stop-color="#C4C4C4"/><stop offset="1" stop-color="#C4C4C4" stop-opacity="0"/></linearGradient><linearGradient id="paint2_linear_1584_834" x1="387.874" y1="162.258" x2="387.874" y2="363" gradientUnits="userSpaceOnUse"><stop stop-color="#C4C4C4"/><stop offset="1" stop-color="#C4C4C4" stop-opacity="0"/></linearGradient><linearGradient id="paint3_linear_1584_834" x1="387.874" y1="162.258" x2="387.874" y2="363" gradientUnits="userSpaceOnUse"><stop stop-color="#C4C4C4"/><stop offset="1" stop-color="#C4C4C4" stop-opacity="0"/></linearGradient></defs></svg>